# xmcd
#
# Track frame offsets: 
#        150
#        12668
#        24793
#        37675
#        50207
#        63424
#        76028
#        88752
#        100939
#        110291
#        119477
#        131063
#        143231
#        155591
#        166367
#        177415
#        187662
#        197800
#        210169
#        223214
#
# Disc length: 3117 seconds
#
# Revision: 4
# Processed by: cddbd v1.5.2PL0 Copyright (c) Steve Scherf et al.
# Submitted via: ExactAudioCopy v1.1
#
DISCID=110c2b14
DTITLE=Various Artist - CD09_1949-50
DYEAR=2006
DGENRE=Country
TTITLE0=Lean McAuliffe (1949) - Panhandle Rag
TTITLE1=Molly O'Day (1949) - Poor Ellen Smith
TTITLE2=Floyd Tillman (1949) - This Cold War With You
TTITLE3=George Morgan (1949) - Room Full Of Roses
TTITLE4=Little Jimmy Dickens (1949) - Country Boy
TTITLE5=Little Jimmy Dickens (1949) - Take An Old Cold 'Tater
TTITLE6=Johnny Bond (1949) - When The Work's All Donw
TTITLE7=Johnny Bond (1949) - Heart And Soul
TTITLE8=Johnny Bond (1949) - So Long To The Red River Valley
TTITLE9=Johnny Bond (1949)  - Tumbling Tumbleweeds
TTITLE10=Smiley Whitley (1949) - West Wind
TTITLE11=Leon McAuliffe (1950) - Take It Away Leon
TTITLE12=Lefty Frizzell (1950) - I Love You A Thousand Ways
TTITLE13=Hank Williams (1950) - Why Don't You Love Me
TTITLE14=Andy Reynolds (1950) - Beer Bottle Mama
TTITLE15=Ann Jones (1950) - Give Me A Hundred Reasons
TTITLE16=Lefty Frezzell (1950) - My Baby's Just Like Money
TTITLE17=Texas Top Hands (1949) - You Can't Have Your Cake
TTITLE18=Jimmie Revard (1949) - Holdin' The Sack
TTITLE19=Shorty Bates (1949) - You're There
EXTD=
EXTT0=
EXTT1=
EXTT2=
EXTT3=
EXTT4=
EXTT5=
EXTT6=
EXTT7=
EXTT8=
EXTT9=
EXTT10=
EXTT11=
EXTT12=
EXTT13=
EXTT14=
EXTT15=
EXTT16=
EXTT17=
EXTT18=
EXTT19=
PLAYORDER=
